<?xml version="1.0" encoding="UTF-8"?>
<svg xmlns="http://www.w3.org/2000/svg" viewBox="0 0 224.75 32">
    <style>.s{fill:#ff005b} rect,.l{fill:#f0f0f0}</style>
    <path class="l" d="M24.48,18.36c1.09,1.41,1.63,3.03,1.63,4.84,0,2.68-.92,4.77-2.77,6.29-1.85,1.52-4.43,2.28-7.77,2.28H0V.31h15.09c3.21,0,5.74.71,7.56,2.14s2.74,3.44,2.74,6.03c0,1.85-.48,3.39-1.45,4.62-.97,1.23-2.25,2.07-3.86,2.52,1.84.42,3.31,1.33,4.4,2.74ZM8.75,12.81h4.42c2.2,0,3.3-.91,3.3-2.72s-1.1-2.81-3.3-2.81h-4.42v5.53ZM17.14,21.96c0-.95-.29-1.68-.87-2.19-.58-.5-1.41-.76-2.48-.76h-5.04v5.71h5.09c2.2,0,3.3-.92,3.3-2.77Z"/>
    <path class="l" d="M38.69,7.32v5.13h10.04v6.65h-10.04v5.67h11.38v7.01h-20.13V.31h20.13v7.01h-11.38Z"/>
    <path class="l" d="M55.27,7.7c1.29-2.42,3.13-4.31,5.51-5.67,2.38-1.35,5.12-2.03,8.21-2.03,3.93,0,7.23,1.05,9.91,3.15s4.4,4.95,5.18,8.55h-9.42c-.57-1.19-1.35-2.1-2.34-2.72s-2.15-.94-3.46-.94c-2.02,0-3.64.72-4.84,2.16-1.2,1.44-1.81,3.37-1.81,5.78s.6,4.38,1.81,5.82,2.82,2.16,4.84,2.16c1.31,0,2.46-.31,3.46-.94s1.78-1.53,2.34-2.72h9.42c-.77,3.6-2.5,6.45-5.18,8.55-2.68,2.1-5.98,3.15-9.91,3.15-3.09,0-5.83-.68-8.21-2.03-2.38-1.35-4.22-3.24-5.51-5.67s-1.94-5.2-1.94-8.32.65-5.85,1.94-8.28Z"/>
    <path class="l" d="M89.11,7.7c1.29-2.42,3.13-4.31,5.51-5.67,2.38-1.35,5.12-2.03,8.21-2.03,3.93,0,7.23,1.05,9.91,3.15s4.4,4.95,5.18,8.55h-9.41c-.57-1.19-1.35-2.1-2.34-2.72-1-.62-2.15-.94-3.46-.94-2.02,0-3.64.72-4.84,2.16-1.2,1.44-1.81,3.37-1.81,5.78s.6,4.38,1.81,5.82,2.82,2.16,4.84,2.16c1.31,0,2.46-.31,3.46-.94,1-.62,1.78-1.53,2.34-2.72h9.41c-.77,3.6-2.5,6.45-5.18,8.55-2.68,2.1-5.98,3.15-9.91,3.15-3.09,0-5.83-.68-8.21-2.03-2.38-1.35-4.22-3.24-5.51-5.67s-1.94-5.2-1.94-8.32.65-5.85,1.94-8.28Z"/>
    <path class="l" d="M141.97,26.65h-11.16l-1.7,5.13h-9.19L131.39.31h10.09l11.42,31.47h-9.24l-1.7-5.13ZM139.78,19.95l-3.39-10.18-3.35,10.18h6.74Z"/>
    <rect x="156.75" width="32" height="32"/>
    <rect x="192.75" width="32" height="32"/>
    <path class="s" d="M206.73,9.79h-2.31v12.32h2.31c1.95,0,3.48-.53,4.59-1.6,1.11-1.07,1.67-2.58,1.67-4.53s-.56-3.5-1.67-4.58c-1.11-1.08-2.64-1.62-4.59-1.62Z"/>
    <path class="s" d="M192.75,0v32h32V0h-32ZM218.21,22.18c-1.03,1.81-2.49,3.24-4.39,4.27-1.89,1.03-4.08,1.55-6.58,1.55h-9.49V4h9.49c2.52,0,4.72.51,6.61,1.52,1.89,1.01,3.35,2.42,4.37,4.24,1.02,1.82,1.53,3.89,1.53,6.23s-.51,4.38-1.55,6.2Z"/>
    <path class="s" d="M156.75,0v32h32V0h-32ZM181.58,28h-16.68v-4.79c2.11-1.65,3.85-3.08,5.2-4.27,1.35-1.2,2.49-2.43,3.4-3.7.92-1.27,1.37-2.48,1.37-3.64,0-.7-.16-1.24-.47-1.63s-.78-.59-1.39-.59-1.12.27-1.47.8c-.35.53-.51,1.31-.49,2.33h-6.22c.07-1.93.49-3.54,1.28-4.81.79-1.27,1.81-2.21,3.08-2.8,1.26-.6,2.67-.9,4.22-.9,2.68,0,4.68.66,5.99,1.99,1.31,1.33,1.96,3.04,1.96,5.15,0,2.26-.76,4.38-2.27,6.36-1.51,1.98-3.41,3.75-5.68,5.32h8.18v5.18Z"/>
</svg>