<svg xmlns="http://www.w3.org/2000/svg" viewBox="0 0 71.04 71.4" fill="#a1a8ff"><path d="M34.72 59.32c2.76-2.76 3.08-7.04.96-10.15l7.11-7.11c1.04-1.04.94-2.84-.24-4.01s-2.97-1.28-4.01-.24l-7 7-5.3-5.3 7-7c1.04-1.04.94-2.84-.24-4.01s-2.97-1.28-4.01-.24l-7.19 7.19c-3.07-1.81-7.08-1.41-9.71 1.23-5.13 5.13-5.72 13.08-1.77 18.87-.23.15-.45.32-.66.53l-8.43 8.43C0 65.74-.4 67.64.41 69.17c1.34 2.56 4.57 2.91 6.42 1.05l8.49-8.49c.2-.2.38-.43.53-.66 5.78 3.95 13.73 3.37 18.87-1.77zM69.87 6.83c1.56-1.56 1.56-4.09 0-5.66-1.56-1.56-4.09-1.56-5.66 0l-8.49 8.49c-.2.2-.38.43-.53.66-5.78-3.95-13.73-3.37-18.87 1.77-2.76 2.76-3.08 7.04-.96 10.15l13.87 13.71c3.07 1.81 7.08 1.41 9.71-1.23 5.13-5.13 5.72-13.08 1.77-18.87.23-.15.45-.32.66-.53l8.49-8.49z"/></svg>